<svg width="120" height="120" xmlns="http://www.w3.org/2000/svg" viewBox="0 0 120 120" fill="none" stroke-linecap="round" stroke-linejoin="round">
  <defs>
  <filter id="og_g" x="-100%" y="-100%" width="300%" height="300%"><feGaussianBlur stdDeviation="1.8"></feGaussianBlur></filter>
  <clipPath id="og_clip"><path d="M6 14 H58 L54 26 L60 40 L52 54 L58 70 L50 84 L56 100 L6 106 Z"></path></clipPath>
  </defs>
  <g clip-path="url(#og_clip)" stroke="#3DFFA2" stroke-opacity="0.20" stroke-width="1.5">
  <line x1="6" y1="26" x2="58" y2="26"></line><line x1="6" y1="44" x2="58" y2="44"></line>
  <line x1="6" y1="62" x2="58" y2="62"></line><line x1="6" y1="80" x2="58" y2="80"></line>
  <line x1="6" y1="98" x2="58" y2="98"></line>
  <line x1="20" y1="14" x2="20" y2="106"></line><line x1="36" y1="14" x2="36" y2="106"></line>
  <line x1="52" y1="14" x2="52" y2="106"></line>
  </g>
  <path d="M58 14 L54 26 L60 40 L52 54 L58 70 L50 84 L56 100" stroke="#3DFFA2" stroke-opacity="0.5" stroke-width="1.5"></path>
  <circle cx="40" cy="60" r="3" fill="#3DFFA2"></circle>
  <circle cx="40" cy="60" r="9" stroke="#3DFFA2" stroke-opacity="0.3" stroke-width="1.5"></circle>
  <line x1="40" y1="60" x2="108" y2="34" stroke="#3DFFA2" stroke-opacity="0.55" stroke-width="1.5"></line>
  <path d="M40 60 L108 34 L104 50 Z" fill="#3DFFA2" fill-opacity="0.06"></path>
  <g fill="#3DFFA2" fill-opacity="0.45">
  <circle cx="72" cy="48" r="1.3"></circle><circle cx="84" cy="40" r="1.3"></circle><circle cx="96" cy="60" r="1.3"></circle>
  <circle cx="78" cy="72" r="1.3"></circle><circle cx="100" cy="44" r="1.3"></circle><circle cx="88" cy="86" r="1.3"></circle>
  <circle cx="104" cy="74" r="1.3"></circle><circle cx="68" cy="86" r="1.3"></circle>
  </g>
  </svg>