<svg width="96" height="96" xmlns="http://www.w3.org/2000/svg" viewBox="0 0 96 96" fill="none" stroke-linecap="round" stroke-linejoin="round">
  <path d="M20 28 A38 38 0 0 1 76 30" stroke="#FF5D5D" stroke-opacity="0.5" stroke-width="1.5" stroke-dasharray="7 5"></path>
  <path d="M28 64 A26 26 0 0 0 70 62" stroke="#FFC857" stroke-opacity="0.5" stroke-width="1.5" stroke-dasharray="5 5"></path>
  <rect x="14" y="44" width="68" height="7" fill="#FF5D5D" fill-opacity="0.07"></rect>
  <line x1="12" y1="44" x2="80" y2="44" stroke="#FFC857" stroke-opacity="0.5" stroke-width="1.5" stroke-dasharray="3 4"></line>
  <line x1="18" y1="51" x2="84" y2="51" stroke="#FF5D5D" stroke-opacity="0.45" stroke-width="1.5" stroke-dasharray="3 4" transform="translate(5 0)"></line>
  <g fill="#FFC857" fill-opacity="0.7">
  <rect x="30" y="32" width="2" height="2"></rect><rect x="58" y="36" width="2" height="2"></rect>
  <rect x="44" y="60" width="2" height="2"></rect><rect x="66" y="56" width="2" height="2"></rect>
  </g>
  <g fill="#FF5D5D" fill-opacity="0.7">
  <rect x="38" y="38" width="2" height="2"></rect><rect x="52" y="64" width="2" height="2"></rect>
  <rect x="24" y="56" width="2" height="2"></rect><rect x="70" y="40" width="2" height="2"></rect>
  </g>
  <circle cx="48" cy="48" r="2.4" fill="#FF5D5D"></circle>
  </svg>